<?xml version="1.0" standalone="no"?>
<!DOCTYPE svg PUBLIC "-//W3C//DTD SVG 20010904//EN"
 "http://www.w3.org/TR/2001/REC-SVG-20010904/DTD/svg10.dtd">
<svg version="1.0" xmlns="http://www.w3.org/2000/svg"
 width="640.000000pt" height="640.000000pt" viewBox="0 0 640.000000 640.000000"
 preserveAspectRatio="xMidYMid meet">
<metadata>
Created by potrace 1.11, written by Peter Selinger 2001-2013
</metadata>
<g transform="translate(0.000000,640.000000) scale(0.100000,-0.100000)"
fill="#000000" stroke="none">
<path d="M3086 4363 c-1 -1 -62 -5 -136 -8 -74 -3 -148 -8 -165 -10 -16 -2
-57 -7 -90 -10 -33 -4 -71 -8 -85 -10 -14 -3 -45 -7 -70 -10 -25 -3 -52 -7
-60 -10 -8 -3 -31 -7 -50 -9 -19 -3 -46 -8 -60 -10 -14 -3 -38 -8 -55 -12 -37
-7 -244 -63 -265 -71 -8 -4 -17 -7 -20 -8 -3 -1 -12 -5 -20 -8 -8 -3 -42 -17
-75 -29 -92 -35 -214 -103 -275 -153 -46 -38 -120 -129 -132 -164 -2 -9 -38
-18 -98 -25 -55 -7 -133 -21 -234 -41 -44 -8 -91 -17 -105 -20 -14 -3 -39 -7
-55 -10 -17 -4 -99 -24 -184 -46 -454 -117 -732 -257 -822 -414 -28 -50 -31
-135 -6 -184 54 -104 166 -182 431 -301 77 -34 434 -138 534 -155 19 -3 37 -8
41 -10 3 -2 17 -6 31 -8 93 -18 158 -30 179 -33 14 -3 36 -7 50 -9 14 -3 36
-7 50 -10 14 -2 68 -11 120 -19 52 -9 118 -18 145 -21 28 -3 64 -8 80 -10 17
-3 55 -7 85 -10 30 -3 66 -7 80 -10 14 -2 57 -7 95 -10 39 -3 86 -8 105 -10
19 -2 69 -7 110 -10 41 -2 105 -7 141 -10 524 -41 1440 -37 1949 10 19 2 67 6
105 9 39 4 88 8 110 11 104 11 163 18 190 20 17 2 46 6 65 8 19 3 59 8 89 12
30 4 63 9 75 11 11 2 38 6 61 9 165 23 456 81 610 120 458 118 747 264 826
417 24 47 26 142 2 189 -48 97 -199 203 -403 284 -36 14 -72 29 -80 34 -9 5
-31 12 -50 16 -19 4 -39 10 -45 14 -5 3 -12 6 -15 7 -3 0 -12 3 -20 6 -16 7
-233 65 -266 73 -175 38 -377 78 -486 95 l-136 23 -18 40 c-67 148 -341 298
-709 387 -99 24 -101 24 -165 35 -25 4 -54 9 -65 11 -10 2 -37 6 -60 9 -22 3
-47 8 -55 10 -8 2 -44 6 -80 10 -36 3 -75 7 -85 9 -50 10 -551 26 -559 19z"/>
</g>
</svg>
